<svg width="48" height="48" viewBox="0 0 48 48" fill="none" xmlns="http://www.w3.org/2000/svg">
<path fill-rule="evenodd" clip-rule="evenodd" d="M6 12.9897V5.19429L13 9.23275V17.045L6 12.9897ZM3.49872 15.0077C3.19004 14.8289 3 14.4992 3 14.1424V1.73147C3 0.961814 3.83306 0.48067 4.49972 0.865286L15.4997 7.21144C15.8093 7.39003 16 7.72025 16 8.07763V20.515C16 21.2855 15.1654 21.7665 14.4987 21.3803L3.49872 15.0077Z" fill="#1B344B"/>
<path fill-rule="evenodd" clip-rule="evenodd" d="M21 21.9897V14.1943L28 18.2328V26.045L21 21.9897ZM18.4987 24.0077C18.19 23.8289 18 23.4992 18 23.1424V10.7315C18 9.96181 18.8331 9.48067 19.4997 9.86529L30.4997 16.2114C30.8093 16.39 31 16.7202 31 17.0776V29.515C31 30.2855 30.1654 30.7665 29.4987 30.3803L18.4987 24.0077Z" fill="#1B344B"/>
<path fill-rule="evenodd" clip-rule="evenodd" d="M43 21.9897V14.1943L36 18.2328V26.045L43 21.9897ZM45.5013 24.0077C45.81 23.8289 46 23.4992 46 23.1424V10.7315C46 9.96181 45.1669 9.48067 44.5003 9.86529L33.5003 16.2114C33.1907 16.39 33 16.7202 33 17.0776V29.515C33 30.2855 33.8346 30.7665 34.5013 30.3803L45.5013 24.0077Z" fill="#1B344B"/>
<path fill-rule="evenodd" clip-rule="evenodd" d="M21 38.9897V31.1943L28 35.2328V43.045L21 38.9897ZM18.4987 41.0077C18.19 40.8289 18 40.4992 18 40.1424V27.7315C18 26.9618 18.8331 26.4807 19.4997 26.8653L30.4997 33.2114C30.8093 33.39 31 33.7202 31 34.0776V46.515C31 47.2855 30.1654 47.7665 29.4987 47.3803L18.4987 41.0077Z" fill="#1B344B"/>
</svg>
